<svg width="24" height="24" viewBox="0 0 24 24" fill="none" xmlns="http://www.w3.org/2000/svg">
  <path
    d="M12.0001 4C12.2653 4 12.5197 4.10536 12.7072 4.29289C12.8947 4.48043 13.0001 4.73478 13.0001 5V16.586L17.2931 12.293C17.4817 12.1108 17.7343 12.01 17.9965 12.0123C18.2587 12.0146 18.5095 12.1198 18.6949 12.3052C18.8803 12.4906 18.9855 12.7414 18.9878 13.0036C18.99 13.2658 18.8892 13.5184 18.7071 13.707L12.7071 19.707C12.5196 19.8945 12.2652 19.9998 12.0001 19.9998C11.7349 19.9998 11.4806 19.8945 11.2931 19.707L5.29308 13.707C5.19757 13.6148 5.12139 13.5044 5.06898 13.3824C5.01657 13.2604 4.98898 13.1292 4.98783 12.9964C4.98668 12.8636 5.01198 12.7319 5.06226 12.609C5.11254 12.4861 5.18679 12.3745 5.28069 12.2806C5.37458 12.1867 5.48623 12.1125 5.60913 12.0622C5.73202 12.0119 5.8637 11.9866 5.99648 11.9877C6.12926 11.9889 6.26048 12.0165 6.38249 12.0689C6.50449 12.1213 6.61483 12.1975 6.70708 12.293L11.0001 16.586V5C11.0001 4.73478 11.1054 4.48043 11.293 4.29289C11.4805 4.10536 11.7349 4 12.0001 4V4Z"
    fill="white" />
</svg>